# xmcd
# Track frame offsets:
# 150
# 33283
# 55277
# 79268
# 110545
# 153434
# 189639
#
# Disc length: 2845 seconds
# Revision: 0
# Processed by: cddbd v1.5.1PL0 Copyright (c) Steve Scherf et al.
# Submitted via: VisiTrax 2.9.10.220 - For more info visit www.synapsa.com
#
DISCID=550b1b07
DTITLE=John Mayall - the Turnong point
DYEAR=1969
DGENRE=
TTITLE0=the Law Must change
TTITLE1=Saw Mill Gulch Road
TTITLE2=I'm gonna Fight For You J.B.
TTITLE3=So hard To Share
TTITLE4=California
TTITLE5=Thoughts about Roxanne
TTITLE6=Room To Move
EXTD=
EXTT0=
EXTT1=
EXTT2=
EXTT3=
EXTT4=
EXTT5=
EXTT6=
PLAYORDER=
